<svg width="24" height="24" viewBox="0 0 24 24" fill="none" xmlns="http://www.w3.org/2000/svg">
<path d="M19.5 16.125L18.75 15C17.55 13.2 16.95 11.025 16.95 8.85C16.95 6.525 15.45 4.575 13.425 3.975C13.2 3.375 12.6 3 12 3C11.4 3 10.8 3.375 10.575 3.975C8.55002 4.575 7.05002 6.525 7.05002 8.85C7.05002 11.025 6.45002 13.2 5.25002 15L4.50002 16.125C4.20002 16.65 4.50002 17.25 5.10002 17.25H18.825C19.425 17.25 19.8 16.575 19.5 16.125Z" stroke="#333F50" stroke-width="2" stroke-miterlimit="10" stroke-linejoin="round"/>
<path d="M14.25 19.5C14.25 20.775 13.275 21.75 12 21.75C10.725 21.75 9.75 20.775 9.75 19.5" stroke="#333F50" stroke-width="2" stroke-miterlimit="10" stroke-linejoin="round"/>
</svg>
