<svg width="1113" height="700" viewBox="0 0 1113 700" fill="none" xmlns="http://www.w3.org/2000/svg">
<g opacity="0.4" filter="url(#filter0_f_428_956)">
<path opacity="0.4" d="M627.032 73.9208C558.729 71.5468 493.624 49.4934 431.551 25.3701C369.477 1.24673 307.952 -25.4861 241.249 -38.2688C198.362 -46.4996 149.315 -47.6572 114.766 -24.6621C81.5126 -2.54002 70.7713 35.6512 64.9936 71.0857C60.648 97.7499 58.127 125.807 70.0061 150.774C78.2755 168.099 92.9503 182.667 103.103 199.266C138.417 257.019 113.452 328.241 75.1757 384.679C57.2245 411.167 36.3992 436.369 22.5483 464.534C8.6975 492.699 2.28217 524.965 14.4066 553.69C26.4231 582.139 55.0468 603.545 86.0641 618.584C149.06 649.104 223.288 657.835 295.671 662.838C455.897 673.796 616.987 669.048 777.635 664.3C837.09 662.534 896.81 660.758 955.293 651.547C987.772 646.435 1021.31 638.332 1044.89 618.771C1074.82 593.931 1082.25 551.885 1062.19 520.737C1028.54 468.507 935.517 455.529 911.995 399.473C899.056 368.62 912.348 334.245 931.162 305.628C971.508 244.246 1039.15 190.388 1042.71 120.215C1045.17 72.0177 1012.65 23.7612 962.366 0.952423C909.67 -22.9747 836.59 -19.9532 797.715 19.5918C757.683 60.3337 687.33 76.0104 627.032 73.9208Z" fill="#00CC99"/>
<path d="M785.021 790.586V509.787H767.542V790.586C742.572 792.402 721.688 801.709 711.927 814.421H840.863C830.648 801.709 809.764 792.402 785.021 790.586Z" fill="#4B4B68"/>
<path d="M892.619 175.416L955.498 117.985C955.498 117.985 989.548 120.255 1000.22 150.219C1010.89 180.183 953.228 533.849 821.568 553.144C464.27 606.035 808.402 331.365 808.402 331.365L892.619 175.416Z" fill="#99A0B1"/>
<path d="M882.177 126.611C882.177 126.611 965.486 105.046 968.437 126.611C971.388 148.176 915.546 471.878 820.206 500.707C724.866 529.536 678.331 535.438 678.331 525.45C678.331 515.462 851.986 162.704 882.177 126.611Z" fill="#BBC2D2"/>
<path d="M670.613 695.7L699.669 725.891L725.774 706.596L708.749 678.675L670.613 695.7Z" fill="#FAC5BB"/>
<path d="M814.531 199.932C814.985 199.024 813.623 196.527 810.899 192.895C802.5 181.772 802.954 163.612 802.954 163.612C802.954 163.612 748.701 250.553 726.001 279.609C703.301 308.892 659.036 315.702 659.036 315.702C659.036 315.702 649.956 344.077 659.036 342.942C668.116 341.807 758.008 328.187 758.008 328.187C758.008 328.187 773.217 284.149 774.579 282.333" fill="#252547"/>
<path d="M316.72 379.035H289.026V813.286H316.72V379.035Z" fill="#262347"/>
<path d="M776.395 353.384L705.798 379.716C705.798 379.716 608.188 418.987 573.457 466.657C552.119 496.167 618.403 669.141 661.987 707.277C661.987 707.277 707.614 686.166 711.927 673.454C710.111 668.914 648.594 582.654 652.226 535.438C655.858 488.449 792.512 436.693 792.512 436.693L776.395 353.384Z" fill="#344075"/>
<path d="M861.293 163.612C861.293 163.612 901.926 174.962 891.711 221.497C881.496 268.032 864.471 300.947 833.826 316.837C803.181 332.727 749.609 357.924 681.509 353.384L672.656 324.782C672.656 324.782 768.45 308.438 808.629 279.609C848.581 251.007 863.109 174.508 861.293 163.612Z" fill="#252547"/>
<path d="M773.671 379.716C773.671 379.716 646.097 431.245 613.409 479.369C580.721 527.266 569.144 742.008 569.144 742.008C569.144 742.008 616.133 747.456 627.937 742.008C627.937 742.008 629.753 587.194 679.466 537.481C729.179 487.768 804.316 484.136 826.108 464.16C847.9 444.184 854.937 418.76 854.937 418.76L773.671 379.716Z" fill="#5A60AA"/>
<path d="M843.133 147.949C862.882 145.679 882.404 160.888 892.619 175.416C916.227 208.558 914.411 264.173 903.515 312.978C892.619 361.783 861.293 418.533 861.293 418.533C861.293 418.533 745.75 424.208 705.798 379.716C705.798 379.716 729.633 343.396 751.198 276.204C773.898 206.061 782.978 154.532 843.133 147.949Z" fill="#2B2B51"/>
<path d="M887.398 293.229C887.398 293.229 873.324 337.04 829.967 358.832" stroke="#646386" stroke-miterlimit="10"/>
<path d="M810.899 354.065H782.978V813.286H810.899V354.065Z" fill="#262347"/>
<path d="M681.509 353.384H481.295C476.301 353.384 471.988 349.752 471.307 344.758L451.558 217.865C450.65 211.736 455.417 206.061 461.546 206.061H661.76C666.754 206.061 671.067 209.693 671.748 214.687L691.497 341.58C692.405 347.936 687.638 353.384 681.509 353.384Z" fill="#BABDDF"/>
<path d="M833.826 354.065H259.516V379.035H833.826V354.065Z" fill="#EDA677"/>
<path d="M855.618 197.435C855.618 197.435 869.692 328.414 691.724 335.224" stroke="#646386" stroke-miterlimit="10"/>
<path d="M802.5 121.163C802.5 121.163 815.666 141.593 811.58 167.017C811.58 167.017 833.826 176.097 850.17 150.673C850.17 150.673 843.36 122.071 852.667 93.0149C861.974 63.9589 802.5 121.163 802.5 121.163Z" fill="#FAC5BB"/>
<path d="M849.489 104.819C850.851 95.285 845.176 91.88 837.685 91.199C822.703 101.641 802.5 120.936 802.5 120.936C802.5 120.936 809.991 132.74 811.807 149.765C811.807 149.765 846.084 127.746 849.489 104.819Z" fill="#BB7A77"/>
<path d="M764.818 242.381C764.818 242.381 748.701 314.567 730.541 331.138" stroke="#646386" stroke-miterlimit="10"/>
<path d="M778.438 68.726L767.769 77.125C767.769 77.125 757.327 68.045 758.008 40.805C758.689 13.565 819.298 -21.166 848.808 17.424C848.808 17.424 859.477 10.614 871.508 26.504C883.539 42.394 893.527 78.033 852.667 93.015C811.807 107.997 778.438 68.726 778.438 68.726Z" fill="#3460AC"/>
<path d="M768.904 48.069C768.904 48.069 758.689 137.961 802.727 137.961C846.765 137.961 852.894 93.015 852.894 93.015C852.894 93.015 861.974 93.923 861.293 81.892C860.612 69.861 849.262 71.677 846.765 81.892C846.765 81.892 830.421 74.628 832.237 58.965C832.237 58.965 797.733 86.659 768.904 48.069Z" fill="#FAC5BB"/>
<path d="M562.107 288.916C568.376 288.916 573.457 283.834 573.457 277.566C573.457 271.298 568.376 266.216 562.107 266.216C555.839 266.216 550.757 271.298 550.757 277.566C550.757 283.834 555.839 288.916 562.107 288.916Z" fill="#F9F9F9"/>
<path d="M788.426 118.439C786.61 116.396 787.745 113.218 790.469 112.764C797.733 111.856 809.764 110.494 809.764 112.537C809.764 117.531 796.371 127.519 788.426 118.439Z" fill="white"/>
<path d="M301.057 603.765C301.057 557.911 252.933 480.731 222.061 490.038C191.189 499.345 196.183 628.735 212.073 653.478C227.963 678.448 267.007 675.27 267.007 675.27C267.007 675.27 301.057 659.38 301.057 603.765Z" fill="#24B686"/>
<path d="M258.381 610.348C257.019 642.809 264.51 662.558 270.639 673.227C279.265 667.325 301.057 648.257 301.057 603.765C301.057 582.881 291.069 555.641 277.449 532.941C269.277 551.782 259.743 579.93 258.381 610.348Z" fill="#128258"/>
<path d="M273.363 603.765C273.363 557.911 321.487 480.731 352.359 490.038C383.231 499.345 378.237 628.735 362.347 653.478C346.457 678.448 307.413 675.27 307.413 675.27C307.413 675.27 273.363 659.38 273.363 603.765Z" fill="#24B686"/>
<path d="M301.057 714.768C301.057 714.768 300.83 714.768 301.057 714.768C299.468 714.768 298.333 713.406 298.56 712.044C304.462 617.385 318.99 566.083 338.966 518.186C339.42 516.824 341.009 516.143 342.371 516.824C343.733 517.278 344.414 518.867 343.733 520.229C323.984 567.445 309.456 618.293 303.554 712.271C303.554 713.633 302.419 714.768 301.057 714.768Z" fill="#17845D"/>
<path d="M273.363 714.768C272.001 714.768 270.866 713.633 270.866 712.271C264.964 618.293 250.663 567.445 230.687 520.229C230.233 518.867 230.687 517.278 232.049 516.824C233.411 516.37 235 516.824 235.454 518.186C255.43 566.083 269.958 617.158 275.86 712.044C276.087 713.406 274.952 714.768 273.363 714.768C273.59 714.768 273.363 714.768 273.363 714.768Z" fill="#17845D"/>
<path d="M321.714 311.616C321.714 311.616 319.898 300.266 324.438 290.051C329.205 279.609 332.837 274.161 332.837 274.161C332.837 274.161 333.291 288.008 330.567 300.493C327.843 312.978 322.622 322.739 322.395 321.831C322.395 321.377 321.714 311.616 321.714 311.616Z" fill="#078455"/>
<path d="M318.99 314.567C318.99 313.886 315.585 294.137 308.094 281.198C308.094 281.198 314.223 283.468 319.898 295.726C325.8 307.984 324.892 318.199 324.892 318.199L322.849 327.506C320.579 325.917 318.99 314.567 318.99 314.567Z" fill="#078455"/>
<path d="M325.346 326.825C325.346 326.825 319.898 307.53 337.831 280.971C342.144 274.615 347.138 273.026 347.138 273.026C347.138 273.026 339.42 321.831 328.524 328.868L325.346 326.825Z" fill="#24B686"/>
<path d="M323.303 330.003C323.303 330.003 317.855 310.708 335.788 284.149C340.101 277.793 345.095 276.204 345.095 276.204C345.095 276.204 337.377 325.009 326.481 332.046L323.303 330.003Z" fill="#24B686"/>
<path d="M321.941 332.046C321.941 332.046 326.254 316.383 311.726 294.591C308.321 289.37 304.008 288.008 304.008 288.008C304.008 288.008 310.137 327.96 319.217 333.408L321.941 332.046Z" fill="#24B686"/>
<path d="M336.923 331.592H308.094V355.654H336.923V331.592Z" fill="#E0732C"/>
<path d="M339.193 325.917H306.278V331.819H339.193V325.917Z" fill="#E0732C"/>
<path d="M395.758 279.372L390.895 278.236L381.6 318.026L386.463 319.162L395.758 279.372Z" fill="#549BD4"/>
<path d="M399.751 290.864L395.551 289.882L386.514 328.567L390.714 329.548L399.751 290.864Z" fill="#F2723B"/>
<path d="M398.44 309.8H371.881V355.654H398.44V309.8Z" fill="#3A3837"/>
<path d="M490.148 140.685H376.648C371.881 140.685 367.795 136.826 367.795 131.832V-35.4669C367.795 -40.2339 371.654 -44.3199 376.648 -44.3199H490.148C494.915 -44.3199 499.001 -40.4609 499.001 -35.4669V131.832C498.774 136.826 494.915 140.685 490.148 140.685Z" fill="#EDA677"/>
<path d="M480.841 127.519H385.955C381.188 127.519 377.102 123.66 377.102 118.666V-22.3009C377.102 -27.0679 380.961 -31.1539 385.955 -31.1539H480.841C485.608 -31.1539 489.694 -27.2949 489.694 -22.3009V118.893C489.467 123.66 485.608 127.519 480.841 127.519Z" fill="#CDEBF4"/>
<path d="M386.409 127.519H392.311L489.694 7.89006V-21.8469C489.694 -27.0679 485.608 -31.1539 480.387 -31.1539H472.442L377.102 89.8371V118.212C377.102 123.433 381.188 127.519 386.409 127.519Z" fill="white"/>
</g>
<defs>
<filter id="filter0_f_428_956" x="0" y="-243" width="1151" height="1151" filterUnits="userSpaceOnUse" color-interpolation-filters="sRGB">
<feFlood flood-opacity="0" result="BackgroundImageFix"/>
<feBlend mode="normal" in="SourceGraphic" in2="BackgroundImageFix" result="shape"/>
<feGaussianBlur stdDeviation="4" result="effect1_foregroundBlur_428_956"/>
</filter>
</defs>
</svg>
