<svg width="1147" height="832" viewBox="0 0 1147 832" fill="none" xmlns="http://www.w3.org/2000/svg">
<g opacity="0.4" filter="url(#filter0_f_1_1450)">
<path opacity="0.4" d="M629.214 170.01C560.67 167.627 495.336 145.496 433.043 121.288C370.751 97.0793 309.009 70.2522 242.071 57.4245C199.033 49.1647 149.813 48.003 115.143 71.0792C81.7716 93.2792 70.9925 131.605 65.1944 167.164C60.8335 193.923 58.3036 222.079 70.2247 247.134C78.5231 264.52 93.2497 279.139 103.438 295.796C138.876 353.753 113.824 425.226 75.4124 481.863C57.398 508.444 36.4993 533.735 22.5996 562C8.69996 590.264 2.26202 622.644 14.4291 651.469C26.488 680.019 55.2126 701.5 86.3392 716.592C149.557 747.22 224.046 755.981 296.685 761.002C457.476 771.999 619.133 767.234 780.348 762.469C840.012 760.697 899.942 758.915 958.632 749.671C991.225 744.542 1024.88 736.41 1048.55 716.779C1078.58 691.852 1086.03 649.658 1065.9 618.4C1032.14 565.987 938.786 552.962 915.18 496.709C902.196 465.747 915.535 431.251 934.415 402.534C974.904 340.935 1042.79 286.887 1046.36 216.467C1048.82 168.1 1016.19 119.673 965.729 96.784C912.847 72.7725 839.51 75.8047 800.498 115.489C760.325 156.374 689.724 172.106 629.214 170.01Z" fill="#00CC99"/>
<path d="M787.759 889.2V607.412H770.219V889.2C745.161 891.023 724.203 900.363 714.408 913.119H843.798C833.547 900.363 812.59 891.023 787.759 889.2Z" fill="#4B4B68"/>
<path d="M895.737 271.862L958.837 214.229C958.837 214.229 993.007 216.507 1003.71 246.577C1014.42 276.646 956.559 631.559 824.435 650.922C465.878 703.999 811.223 428.361 811.223 428.361L895.737 271.862Z" fill="#99A0B1"/>
<path d="M885.258 222.885C885.258 222.885 968.86 201.244 971.822 222.885C974.783 244.526 918.744 569.369 823.068 598.3C727.392 627.23 680.693 633.153 680.693 623.13C680.693 613.107 854.96 259.106 885.258 222.885Z" fill="#BBC2D2"/>
<path d="M707.118 803.092L701.423 821.316C701.423 821.316 706.435 841.362 701.423 862.32C696.412 883.278 675.226 901.046 679.782 905.146C684.338 909.247 703.018 906.285 713.952 897.857C724.887 889.428 757.69 837.034 757.69 833.845C757.69 830.656 727.62 802.181 727.62 802.181L707.118 803.092Z" fill="#E44468"/>
<path d="M672.948 793.98L702.107 824.277L728.304 804.914L711.219 776.895L672.948 793.98Z" fill="#FAC5BB"/>
<path d="M585.701 828.833L591.168 860.953C591.168 860.953 617.137 863.459 626.933 859.359V837.262L585.701 828.833Z" fill="#FAC5BB"/>
<path d="M817.373 296.465C817.829 295.554 816.462 293.048 813.729 289.403C805.3 278.241 805.756 260.017 805.756 260.017C805.756 260.017 751.311 347.264 728.531 376.423C705.751 405.809 661.33 412.643 661.33 412.643C661.33 412.643 652.218 441.118 661.33 439.979C670.442 438.84 760.651 425.172 760.651 425.172C760.651 425.172 775.914 380.979 777.281 379.156" fill="#252547"/>
<path d="M317.808 476.199H290.016V911.98H317.808V476.199Z" fill="#262347"/>
<path d="M779.103 450.458L708.257 476.882C708.257 476.882 610.303 516.292 575.45 564.13C554.037 593.744 620.554 767.328 664.292 805.598C664.292 805.598 710.08 784.413 714.408 771.656C712.585 767.1 650.852 680.536 654.496 633.153C658.141 585.999 795.277 534.06 795.277 534.06L779.103 450.458Z" fill="#344075"/>
<path d="M864.3 260.017C864.3 260.017 905.076 271.407 894.825 318.106C884.574 364.805 867.489 397.836 836.736 413.782C805.983 429.728 752.223 455.014 683.883 450.458L674.998 421.755C674.998 421.755 771.13 405.353 811.451 376.423C851.543 347.72 866.123 270.951 864.3 260.017Z" fill="#252547"/>
<path d="M776.369 476.882C776.369 476.882 648.346 528.593 615.543 576.887C582.739 624.952 571.122 840.451 571.122 840.451C571.122 840.451 618.276 845.918 630.122 840.451C630.122 840.451 631.944 685.092 681.832 635.203C731.721 585.315 807.122 581.67 828.991 561.624C850.86 541.578 857.922 516.064 857.922 516.064L776.369 476.882Z" fill="#5A60AA"/>
<path d="M846.076 244.299C865.895 242.021 885.486 257.283 895.737 271.862C919.428 305.121 917.606 360.932 906.671 409.909C895.737 458.886 864.3 515.836 864.3 515.836C864.3 515.836 748.35 521.531 708.257 476.882C708.257 476.882 732.176 440.434 753.817 373.006C776.597 302.615 785.709 250.905 846.076 244.299Z" fill="#2B2B51"/>
<path d="M890.497 390.091C890.497 390.091 876.374 434.056 832.864 455.925" stroke="#646386" stroke-miterlimit="10"/>
<path d="M813.729 451.141H785.709V911.98H813.729V451.141Z" fill="#262347"/>
<path d="M683.883 450.458H482.963C477.951 450.458 473.623 446.813 472.94 441.801L453.121 314.461C452.21 308.31 456.994 302.615 463.144 302.615H664.064C669.076 302.615 673.404 306.26 674.087 311.272L693.906 438.612C694.817 444.99 690.033 450.458 683.883 450.458Z" fill="#BABDDF"/>
<path d="M836.736 451.141H260.402V476.199H836.736V451.141Z" fill="#EDA677"/>
<path d="M858.605 293.959C858.605 293.959 872.729 425.4 694.134 432.234" stroke="#646386" stroke-miterlimit="10"/>
<path d="M805.3 217.418C805.3 217.418 818.512 237.92 814.412 263.434C814.412 263.434 836.736 272.546 853.138 247.032C853.138 247.032 846.304 218.329 855.644 189.171C864.984 160.013 805.3 217.418 805.3 217.418Z" fill="#FAC5BB"/>
<path d="M852.455 201.017C853.821 191.449 848.126 188.032 840.609 187.349C825.574 197.827 805.3 217.19 805.3 217.19C805.3 217.19 812.817 229.036 814.64 246.121C814.64 246.121 849.038 224.024 852.455 201.017Z" fill="#BB7A77"/>
<path d="M767.485 339.063C767.485 339.063 751.311 411.504 733.087 428.133" stroke="#646386" stroke-miterlimit="10"/>
<path d="M781.153 164.796L770.447 173.225C770.447 173.225 759.968 164.113 760.651 136.777C761.335 109.441 822.157 74.5876 851.771 113.314C851.771 113.314 862.478 106.48 874.551 122.426C886.625 138.372 896.648 174.136 855.644 189.171C814.64 204.206 781.153 164.796 781.153 164.796Z" fill="#3460AC"/>
<path d="M771.586 144.067C771.586 144.067 761.335 234.275 805.528 234.275C849.721 234.275 855.872 189.171 855.872 189.171C855.872 189.171 864.984 190.082 864.3 178.009C863.617 165.935 852.227 167.758 849.721 178.009C849.721 178.009 833.319 170.719 835.142 155.001C835.142 155.001 800.516 182.793 771.586 144.067Z" fill="#FAC5BB"/>
<path d="M564.06 385.762C570.35 385.762 575.45 380.663 575.45 374.372C575.45 368.082 570.35 362.982 564.06 362.982C557.769 362.982 552.67 368.082 552.67 374.372C552.67 380.663 557.769 385.762 564.06 385.762Z" fill="#F9F9F9"/>
<path d="M791.176 214.685C789.354 212.634 790.493 209.445 793.227 208.99C800.516 208.078 812.59 206.712 812.59 208.762C812.59 213.773 799.149 223.797 791.176 214.685Z" fill="white"/>
<path d="M708.257 68.8926C742.352 68.8926 769.991 41.2534 769.991 7.15879C769.991 -26.9359 742.352 -54.575 708.257 -54.575C674.163 -54.575 646.523 -26.9359 646.523 7.15879C646.523 41.2534 674.163 68.8926 708.257 68.8926Z" fill="#BBC2D2"/>
<path d="M708.257 61.3752C738.2 61.3752 762.474 37.1017 762.474 7.15878C762.474 -22.7841 738.2 -47.0576 708.257 -47.0576C678.314 -47.0576 654.041 -22.7841 654.041 7.15878C654.041 37.1017 678.314 61.3752 708.257 61.3752Z" fill="#E6E7EC"/>
<path d="M708.257 13.0816C711.528 13.0816 714.18 10.4299 714.18 7.15879C714.18 3.88772 711.528 1.23599 708.257 1.23599C704.986 1.23599 702.334 3.88772 702.334 7.15879C702.334 10.4299 704.986 13.0816 708.257 13.0816Z" fill="#727377"/>
<path d="M708.257 3.74179L739.01 -24.5054L712.13 7.15879L708.257 3.74179Z" fill="#727377"/>
<path d="M705.751 6.47539L708.941 5.10858L719.192 38.823" fill="#727377"/>
<path d="M302.09 701.721C302.09 655.705 253.796 578.253 222.815 587.593C191.835 596.933 196.846 726.779 212.792 751.609C228.738 776.667 267.92 773.478 267.92 773.478C267.92 773.478 302.09 757.532 302.09 701.721Z" fill="#24B686"/>
<path d="M259.263 708.327C257.897 740.903 265.414 760.721 271.565 771.428C280.221 765.505 302.09 746.37 302.09 701.721C302.09 680.763 292.067 653.427 278.399 630.647C270.198 649.555 260.63 677.802 259.263 708.327Z" fill="#128258"/>
<path d="M274.298 701.721C274.298 655.705 322.592 578.253 353.573 587.593C384.553 596.933 379.542 726.779 363.596 751.609C347.65 776.667 308.468 773.478 308.468 773.478C308.468 773.478 274.298 757.532 274.298 701.721Z" fill="#24B686"/>
<path d="M302.09 813.115C301.862 813.115 302.09 813.115 302.09 813.115C300.495 813.115 299.356 811.748 299.584 810.382C305.507 715.389 320.086 663.906 340.132 615.84C340.588 614.474 342.183 613.79 343.549 614.474C344.916 614.929 345.6 616.524 344.916 617.891C325.098 665.273 310.518 716.3 304.596 810.609C304.596 811.976 303.457 813.115 302.09 813.115Z" fill="#17845D"/>
<path d="M274.298 813.115C272.931 813.115 271.792 811.976 271.792 810.609C265.87 716.3 251.518 665.273 231.472 617.891C231.016 616.524 231.472 614.929 232.839 614.474C234.205 614.018 235.8 614.474 236.256 615.84C256.302 663.906 270.881 715.161 276.804 810.382C277.032 811.748 275.893 813.115 274.298 813.115C274.526 813.115 274.298 813.115 274.298 813.115Z" fill="#17845D"/>
<path d="M350.383 810.609H216.209V834.528H350.383V810.609Z" fill="#D6DAE8"/>
<path d="M322.82 408.542C322.82 408.542 320.997 397.152 325.553 386.901C330.337 376.423 333.982 370.955 333.982 370.955C333.982 370.955 334.438 384.851 331.704 397.38C328.97 409.909 323.731 419.705 323.503 418.793C323.503 418.338 322.82 408.542 322.82 408.542Z" fill="#078455"/>
<path d="M320.086 411.504C320.086 410.82 316.669 391.002 309.152 378.017C309.152 378.017 315.302 380.295 320.997 392.596C326.92 404.898 326.009 415.149 326.009 415.149L323.959 424.488C321.681 422.894 320.086 411.504 320.086 411.504Z" fill="#078455"/>
<path d="M326.464 423.805C326.464 423.805 320.997 404.442 338.993 377.789C343.322 371.411 348.333 369.816 348.333 369.816C348.333 369.816 340.588 418.793 329.654 425.855L326.464 423.805Z" fill="#24B686"/>
<path d="M324.414 426.994C324.414 426.994 318.947 407.631 336.943 380.979C341.271 374.6 346.283 373.006 346.283 373.006C346.283 373.006 338.538 421.983 327.604 429.044L324.414 426.994Z" fill="#24B686"/>
<path d="M323.047 429.044C323.047 429.044 327.376 413.326 312.796 391.457C309.379 386.218 305.051 384.851 305.051 384.851C305.051 384.851 311.202 424.944 320.314 430.411L323.047 429.044Z" fill="#24B686"/>
<path d="M338.082 428.589H309.152V452.736H338.082V428.589Z" fill="#E0732C"/>
<path d="M340.36 422.894H307.329V428.817H340.36V422.894Z" fill="#E0732C"/>
<path d="M397.125 376.185L392.245 375.045L382.917 414.975L387.797 416.115L397.125 376.185Z" fill="#549BD4"/>
<path d="M401.132 387.717L396.917 386.732L387.848 425.553L392.063 426.537L401.132 387.717Z" fill="#F2723B"/>
<path d="M399.816 406.72H373.163V452.736H399.816V406.72Z" fill="#3A3837"/>
<path d="M491.847 237.009H377.947C373.163 237.009 369.063 233.136 369.063 228.125V60.2362C369.063 55.4524 372.936 51.352 377.947 51.352H491.847C496.631 51.352 500.731 55.2246 500.731 60.2362V228.125C500.504 233.136 496.631 237.009 491.847 237.009Z" fill="#EDA677"/>
<path d="M482.507 223.797H387.287C382.503 223.797 378.403 219.924 378.403 214.912V73.4486C378.403 68.6648 382.275 64.5644 387.287 64.5644H482.507C487.291 64.5644 491.392 68.437 491.392 73.4486V215.14C491.164 219.924 487.291 223.797 482.507 223.797Z" fill="#CDEBF4"/>
<path d="M387.743 223.797H393.665L491.392 103.746V73.9042C491.392 68.6648 487.291 64.5644 482.052 64.5644H474.079L378.403 185.982V214.457C378.403 219.696 382.503 223.797 387.743 223.797Z" fill="white"/>
</g>
<defs>
<filter id="filter0_f_1_1450" x="0" y="-148" width="1155" height="1155" filterUnits="userSpaceOnUse" color-interpolation-filters="sRGB">
<feFlood flood-opacity="0" result="BackgroundImageFix"/>
<feBlend mode="normal" in="SourceGraphic" in2="BackgroundImageFix" result="shape"/>
<feGaussianBlur stdDeviation="4" result="effect1_foregroundBlur_1_1450"/>
</filter>
</defs>
</svg>
