<svg width="620" height="214" viewBox="0 0 620 214" fill="none" xmlns="http://www.w3.org/2000/svg">
<g filter="url(#filter0_d_425_139)">
<path d="M7.55078 108V38H23.8508L52.8508 85.6H44.2508L72.4508 38H88.7508L88.9508 108H70.7508L70.5508 65.7H73.6508L52.5508 101.1H43.7508L22.0508 65.7H25.8508V108H7.55078ZM111.361 128.3C108.494 128.3 105.594 127.833 102.661 126.9C99.7943 126.033 97.4609 124.867 95.6609 123.4L102.261 110.1C103.394 111.1 104.694 111.867 106.161 112.4C107.694 113 109.194 113.3 110.661 113.3C112.728 113.3 114.361 112.833 115.561 111.9C116.761 110.967 117.794 109.5 118.661 107.5L121.161 101.2L122.661 99.3L141.061 53.8H159.161L135.761 110.2C133.894 114.867 131.728 118.5 129.261 121.1C126.861 123.767 124.161 125.633 121.161 126.7C118.228 127.767 114.961 128.3 111.361 128.3ZM118.761 110.3L94.8609 53.8H114.361L131.961 97.6L118.761 110.3ZM251.804 181.84C248.484 181.84 245.404 181.32 242.564 180.28C239.764 179.2 237.324 177.68 235.244 175.72C233.204 173.76 231.604 171.46 230.444 168.82C229.284 166.14 228.704 163.2 228.704 160C228.704 156.8 229.284 153.88 230.444 151.24C231.604 148.56 233.204 146.24 235.244 144.28C237.324 142.32 239.764 140.82 242.564 139.78C245.404 138.7 248.484 138.16 251.804 138.16C255.684 138.16 259.144 138.84 262.184 140.2C265.264 141.56 267.824 143.52 269.864 146.08L262.304 152.92C260.944 151.32 259.444 150.1 257.804 149.26C256.204 148.42 254.404 148 252.404 148C250.684 148 249.104 148.28 247.664 148.84C246.224 149.4 244.984 150.22 243.944 151.3C242.944 152.34 242.144 153.6 241.544 155.08C240.984 156.56 240.704 158.2 240.704 160C240.704 161.8 240.984 163.44 241.544 164.92C242.144 166.4 242.944 167.68 243.944 168.76C244.984 169.8 246.224 170.6 247.664 171.16C249.104 171.72 250.684 172 252.404 172C254.404 172 256.204 171.58 257.804 170.74C259.444 169.9 260.944 168.68 262.304 167.08L269.864 173.92C267.824 176.44 265.264 178.4 262.184 179.8C259.144 181.16 255.684 181.84 251.804 181.84ZM295.801 147.94C298.321 147.94 300.601 148.46 302.641 149.5C304.681 150.5 306.281 152.06 307.441 154.18C308.641 156.3 309.241 159.04 309.241 162.4V181H297.841V164.26C297.841 161.94 297.361 160.26 296.401 159.22C295.481 158.14 294.181 157.6 292.501 157.6C291.301 157.6 290.201 157.88 289.201 158.44C288.201 158.96 287.421 159.78 286.861 160.9C286.301 162.02 286.021 163.48 286.021 165.28V181H274.621V136.48H286.021V157.72L283.381 155.02C284.621 152.66 286.321 150.9 288.481 149.74C290.641 148.54 293.081 147.94 295.801 147.94ZM336.258 181V174.94L335.478 173.44V162.28C335.478 160.48 334.918 159.1 333.798 158.14C332.718 157.14 330.978 156.64 328.578 156.64C327.018 156.64 325.438 156.9 323.838 157.42C322.238 157.9 320.878 158.58 319.758 159.46L315.918 151.72C317.758 150.52 319.958 149.6 322.518 148.96C325.118 148.28 327.698 147.94 330.258 147.94C335.538 147.94 339.618 149.16 342.498 151.6C345.418 154 346.878 157.78 346.878 162.94V181H336.258ZM326.658 181.54C324.058 181.54 321.858 181.1 320.058 180.22C318.258 179.34 316.878 178.14 315.918 176.62C314.998 175.1 314.538 173.4 314.538 171.52C314.538 169.52 315.038 167.8 316.038 166.36C317.078 164.88 318.658 163.76 320.778 163C322.898 162.2 325.638 161.8 328.998 161.8H336.678V167.74H330.558C328.718 167.74 327.418 168.04 326.658 168.64C325.938 169.24 325.578 170.04 325.578 171.04C325.578 172.04 325.958 172.84 326.718 173.44C327.478 174.04 328.518 174.34 329.838 174.34C331.078 174.34 332.198 174.04 333.198 173.44C334.238 172.8 334.998 171.84 335.478 170.56L337.038 174.76C336.438 177 335.258 178.7 333.498 179.86C331.778 180.98 329.498 181.54 326.658 181.54ZM354.074 181V148.48H365.474V181H354.074ZM359.774 144.88C357.694 144.88 356.014 144.3 354.734 143.14C353.454 141.98 352.814 140.54 352.814 138.82C352.814 137.1 353.454 135.66 354.734 134.5C356.014 133.34 357.694 132.76 359.774 132.76C361.854 132.76 363.534 133.32 364.814 134.44C366.094 135.52 366.734 136.92 366.734 138.64C366.734 140.44 366.094 141.94 364.814 143.14C363.574 144.3 361.894 144.88 359.774 144.88ZM394.063 147.94C396.583 147.94 398.863 148.46 400.903 149.5C402.943 150.5 404.543 152.06 405.703 154.18C406.903 156.3 407.503 159.04 407.503 162.4V181H396.103V164.26C396.103 161.94 395.623 160.26 394.663 159.22C393.743 158.14 392.443 157.6 390.763 157.6C389.563 157.6 388.463 157.88 387.463 158.44C386.463 158.96 385.683 159.78 385.123 160.9C384.563 162.02 384.283 163.48 384.283 165.28V181H372.883V148.48H383.743V157.72L381.643 155.02C382.883 152.66 384.583 150.9 386.743 149.74C388.903 148.54 391.343 147.94 394.063 147.94Z" fill="#333F50"/>
<path d="M164.973 108V38H196.973C203.373 38 208.873 39.0333 213.473 41.1C218.139 43.1667 221.739 46.1667 224.273 50.1C226.806 53.9667 228.073 58.5667 228.073 63.9C228.073 69.1667 226.806 73.7333 224.273 77.6C221.739 81.4667 218.139 84.4667 213.473 86.6C208.873 88.6667 203.373 89.7 196.973 89.7H175.973L184.773 81.1V108H164.973ZM184.773 83.2L175.973 74.1H195.773C199.906 74.1 202.973 73.2 204.973 71.4C207.039 69.6 208.073 67.1 208.073 63.9C208.073 60.6333 207.039 58.1 204.973 56.3C202.973 54.5 199.906 53.6 195.773 53.6H175.973L184.773 44.5V83.2ZM237.315 108V53.8H255.415V69.6L252.715 65.1C254.315 61.0333 256.915 58 260.515 56C264.115 53.9333 268.481 52.9 273.615 52.9V70C272.748 69.8667 271.981 69.8 271.315 69.8C270.715 69.7333 270.048 69.7 269.315 69.7C265.448 69.7 262.315 70.7667 259.915 72.9C257.515 74.9667 256.315 78.3667 256.315 83.1V108H237.315ZM308.167 108.9C302.234 108.9 296.967 107.7 292.367 105.3C287.767 102.9 284.134 99.6 281.467 95.4C278.867 91.1333 277.567 86.2667 277.567 80.8C277.567 75.3333 278.867 70.5 281.467 66.3C284.134 62.1 287.767 58.8333 292.367 56.5C296.967 54.1 302.234 52.9 308.167 52.9C314.101 52.9 319.367 54.1 323.967 56.5C328.634 58.8333 332.267 62.1 334.867 66.3C337.467 70.5 338.767 75.3333 338.767 80.8C338.767 86.2667 337.467 91.1333 334.867 95.4C332.267 99.6 328.634 102.9 323.967 105.3C319.367 107.7 314.101 108.9 308.167 108.9ZM308.167 93.8C310.367 93.8 312.301 93.3 313.967 92.3C315.701 91.3 317.067 89.8333 318.067 87.9C319.067 85.9 319.567 83.5333 319.567 80.8C319.567 78.0667 319.067 75.7667 318.067 73.9C317.067 71.9667 315.701 70.5 313.967 69.5C312.301 68.5 310.367 68 308.167 68C306.034 68 304.101 68.5 302.367 69.5C300.701 70.5 299.334 71.9667 298.267 73.9C297.267 75.7667 296.767 78.0667 296.767 80.8C296.767 83.5333 297.267 85.9 298.267 87.9C299.334 89.8333 300.701 91.3 302.367 92.3C304.101 93.3 306.034 93.8 308.167 93.8ZM381.669 108.9C377.069 108.9 373.135 107.9 369.869 105.9C366.602 103.833 364.102 100.767 362.369 96.7C360.702 92.5667 359.869 87.3 359.869 80.9C359.869 74.4333 360.669 69.1667 362.269 65.1C363.869 60.9667 366.269 57.9 369.469 55.9C372.735 53.9 376.802 52.9 381.669 52.9C386.602 52.9 391.069 54.0667 395.069 56.4C399.135 58.6667 402.335 61.9 404.669 66.1C407.069 70.2333 408.269 75.1667 408.269 80.9C408.269 86.6333 407.069 91.6 404.669 95.8C402.335 100 399.135 103.233 395.069 105.5C391.069 107.767 386.602 108.9 381.669 108.9ZM347.569 127.4V53.8H365.669V63L365.569 80.9L366.569 98.9V127.4H347.569ZM377.669 93.8C379.802 93.8 381.702 93.3 383.369 92.3C385.102 91.3 386.469 89.8333 387.469 87.9C388.535 85.9667 389.069 83.6333 389.069 80.9C389.069 78.1667 388.535 75.8333 387.469 73.9C386.469 71.9667 385.102 70.5 383.369 69.5C381.702 68.5 379.802 68 377.669 68C375.535 68 373.602 68.5 371.869 69.5C370.202 70.5 368.835 71.9667 367.769 73.9C366.769 75.8333 366.269 78.1667 366.269 80.9C366.269 83.6333 366.769 85.9667 367.769 87.9C368.835 89.8333 370.202 91.3 371.869 92.3C373.602 93.3 375.535 93.8 377.669 93.8Z" fill="#00CC99"/>
</g>
<g filter="url(#filter1_d_425_139)">
<path d="M492.5 181.5H437L484.5 173.5V2L574.5 38V88L566.5 86.5V43L492.5 14V181.5Z" fill="#333F50"/>
<path d="M575.5 116.5L566.5 113.5V181.5H613.5L575.5 173.5V116.5Z" fill="#333F50"/>
</g>
<g filter="url(#filter2_d_425_139)">
<path d="M515.5 203.5H437L507 194.5V71.5L526 79.5V88L515.5 83.5V203.5Z" fill="#00CC99"/>
</g>
<g filter="url(#filter3_d_425_139)">
<path d="M552.5 98.5V89.5L597.5 107.5V152.5L614.5 160.5H589.5V113.5L552.5 98.5Z" fill="#00CC99"/>
</g>
<g filter="url(#filter4_d_425_139)">
<path d="M461 160H436L452.5 152.5V77L475 68V77L461 82.5V121.25V160Z" fill="#00CC99"/>
</g>
<g filter="url(#filter5_d_425_139)">
<path d="M501.5 57.5V66.5L535.5 53.2261V203.5H614L543.5 194.5V41.5L501.5 57.5Z" fill="#00CC99"/>
</g>
<defs>
<filter id="filter0_d_425_139" x="0.550781" y="36" width="412.718" height="155.84" filterUnits="userSpaceOnUse" color-interpolation-filters="sRGB">
<feFlood flood-opacity="0" result="BackgroundImageFix"/>
<feColorMatrix in="SourceAlpha" type="matrix" values="0 0 0 0 0 0 0 0 0 0 0 0 0 0 0 0 0 0 127 0" result="hardAlpha"/>
<feOffset dx="-1" dy="4"/>
<feGaussianBlur stdDeviation="3"/>
<feComposite in2="hardAlpha" operator="out"/>
<feColorMatrix type="matrix" values="0 0 0 0 0 0 0 0 0 0 0 0 0 0 0 0 0 0 0.6 0"/>
<feBlend mode="normal" in2="BackgroundImageFix" result="effect1_dropShadow_425_139"/>
<feBlend mode="normal" in="SourceGraphic" in2="effect1_dropShadow_425_139" result="shape"/>
</filter>
<filter id="filter1_d_425_139" x="430" y="0" width="188.5" height="191.5" filterUnits="userSpaceOnUse" color-interpolation-filters="sRGB">
<feFlood flood-opacity="0" result="BackgroundImageFix"/>
<feColorMatrix in="SourceAlpha" type="matrix" values="0 0 0 0 0 0 0 0 0 0 0 0 0 0 0 0 0 0 127 0" result="hardAlpha"/>
<feOffset dx="-1" dy="4"/>
<feGaussianBlur stdDeviation="3"/>
<feComposite in2="hardAlpha" operator="out"/>
<feColorMatrix type="matrix" values="0 0 0 0 0 0 0 0 0 0 0 0 0 0 0 0 0 0 0.6 0"/>
<feBlend mode="normal" in2="BackgroundImageFix" result="effect1_dropShadow_425_139"/>
<feBlend mode="normal" in="SourceGraphic" in2="effect1_dropShadow_425_139" result="shape"/>
</filter>
<filter id="filter2_d_425_139" x="430" y="69.5" width="101" height="144" filterUnits="userSpaceOnUse" color-interpolation-filters="sRGB">
<feFlood flood-opacity="0" result="BackgroundImageFix"/>
<feColorMatrix in="SourceAlpha" type="matrix" values="0 0 0 0 0 0 0 0 0 0 0 0 0 0 0 0 0 0 127 0" result="hardAlpha"/>
<feOffset dx="-1" dy="4"/>
<feGaussianBlur stdDeviation="3"/>
<feComposite in2="hardAlpha" operator="out"/>
<feColorMatrix type="matrix" values="0 0 0 0 0 0 0 0 0 0 0 0 0 0 0 0 0 0 0.6 0"/>
<feBlend mode="normal" in2="BackgroundImageFix" result="effect1_dropShadow_425_139"/>
<feBlend mode="normal" in="SourceGraphic" in2="effect1_dropShadow_425_139" result="shape"/>
</filter>
<filter id="filter3_d_425_139" x="545.5" y="87.5" width="74" height="83" filterUnits="userSpaceOnUse" color-interpolation-filters="sRGB">
<feFlood flood-opacity="0" result="BackgroundImageFix"/>
<feColorMatrix in="SourceAlpha" type="matrix" values="0 0 0 0 0 0 0 0 0 0 0 0 0 0 0 0 0 0 127 0" result="hardAlpha"/>
<feOffset dx="-1" dy="4"/>
<feGaussianBlur stdDeviation="3"/>
<feComposite in2="hardAlpha" operator="out"/>
<feColorMatrix type="matrix" values="0 0 0 0 0 0 0 0 0 0 0 0 0 0 0 0 0 0 0.6 0"/>
<feBlend mode="normal" in2="BackgroundImageFix" result="effect1_dropShadow_425_139"/>
<feBlend mode="normal" in="SourceGraphic" in2="effect1_dropShadow_425_139" result="shape"/>
</filter>
<filter id="filter4_d_425_139" x="429" y="66" width="51" height="104" filterUnits="userSpaceOnUse" color-interpolation-filters="sRGB">
<feFlood flood-opacity="0" result="BackgroundImageFix"/>
<feColorMatrix in="SourceAlpha" type="matrix" values="0 0 0 0 0 0 0 0 0 0 0 0 0 0 0 0 0 0 127 0" result="hardAlpha"/>
<feOffset dx="-1" dy="4"/>
<feGaussianBlur stdDeviation="3"/>
<feComposite in2="hardAlpha" operator="out"/>
<feColorMatrix type="matrix" values="0 0 0 0 0 0 0 0 0 0 0 0 0 0 0 0 0 0 0.6 0"/>
<feBlend mode="normal" in2="BackgroundImageFix" result="effect1_dropShadow_425_139"/>
<feBlend mode="normal" in="SourceGraphic" in2="effect1_dropShadow_425_139" result="shape"/>
</filter>
<filter id="filter5_d_425_139" x="494.5" y="39.5" width="124.5" height="174" filterUnits="userSpaceOnUse" color-interpolation-filters="sRGB">
<feFlood flood-opacity="0" result="BackgroundImageFix"/>
<feColorMatrix in="SourceAlpha" type="matrix" values="0 0 0 0 0 0 0 0 0 0 0 0 0 0 0 0 0 0 127 0" result="hardAlpha"/>
<feOffset dx="-1" dy="4"/>
<feGaussianBlur stdDeviation="3"/>
<feComposite in2="hardAlpha" operator="out"/>
<feColorMatrix type="matrix" values="0 0 0 0 0 0 0 0 0 0 0 0 0 0 0 0 0 0 0.6 0"/>
<feBlend mode="normal" in2="BackgroundImageFix" result="effect1_dropShadow_425_139"/>
<feBlend mode="normal" in="SourceGraphic" in2="effect1_dropShadow_425_139" result="shape"/>
</filter>
</defs>
</svg>
