<svg width="24" height="24" viewBox="0 0 24 24" fill="none" xmlns="http://www.w3.org/2000/svg">
<g clip-path="url(#clip0_245_2286)">
<path d="M22.2001 8.84233C21.8961 8.65924 21.659 8.3832 21.5239 8.05501C21.3889 7.72681 21.363 7.36388 21.4501 7.01983C21.6085 6.40164 21.6031 5.75282 21.4343 5.13736C21.2655 4.52191 20.9392 3.96109 20.4876 3.51021C20.0359 3.05933 19.4746 2.73396 18.8588 2.56621C18.2431 2.39845 17.5943 2.3941 16.9763 2.55358C16.6328 2.64041 16.2705 2.61436 15.943 2.47929C15.6154 2.34422 15.34 2.1073 15.1576 1.80358C14.8325 1.25565 14.3705 0.801726 13.8169 0.486444C13.2633 0.171161 12.6372 0.00537109 12.0001 0.00537109C11.363 0.00537109 10.7369 0.171161 10.1833 0.486444C9.62965 0.801726 9.16762 1.25565 8.84258 1.80358C8.66036 2.10848 8.38442 2.34626 8.05596 2.48143C7.72749 2.6166 7.36411 2.64191 7.02008 2.55358C6.40226 2.39543 5.75391 2.40094 5.13887 2.56957C4.52383 2.7382 3.96333 3.06414 3.51257 3.51527C3.06181 3.96641 2.73635 4.52718 2.56823 5.14236C2.40012 5.75754 2.39515 6.4059 2.55383 7.02358C2.64127 7.36708 2.61551 7.72963 2.48039 8.05731C2.34526 8.385 2.10798 8.66032 1.80383 8.84233C1.25589 9.16737 0.80197 9.6294 0.486688 10.183C0.171405 10.7366 0.00561523 11.3627 0.00561523 11.9998C0.00561523 12.6369 0.171405 13.2631 0.486688 13.8167C0.80197 14.3703 1.25589 14.8323 1.80383 15.1573C2.10828 15.34 2.3457 15.616 2.48081 15.9443C2.61593 16.2726 2.64154 16.6358 2.55383 16.9798C2.39567 17.5976 2.40118 18.246 2.56981 18.861C2.73844 19.4761 3.06438 20.0366 3.51552 20.4873C3.96665 20.9381 4.52743 21.2636 5.14261 21.4317C5.75779 21.5998 6.40615 21.6048 7.02383 21.4461C7.36733 21.3593 7.72966 21.3853 8.05721 21.5204C8.38475 21.6555 8.66012 21.8924 8.84258 22.1961C9.16762 22.744 9.62965 23.1979 10.1833 23.5132C10.7369 23.8285 11.363 23.9943 12.0001 23.9943C12.6372 23.9943 13.2633 23.8285 13.8169 23.5132C14.3705 23.1979 14.8325 22.744 15.1576 22.1961C15.3407 21.8921 15.6167 21.655 15.9449 21.52C16.2731 21.3849 16.636 21.359 16.9801 21.4461C17.5979 21.6042 18.2463 21.5987 18.8613 21.4301C19.4763 21.2615 20.0368 20.9355 20.4876 20.4844C20.9383 20.0333 21.2638 19.4725 21.4319 18.8573C21.6 18.2421 21.605 17.5938 21.4463 16.9761C21.3595 16.6326 21.3856 16.2703 21.5206 15.9427C21.6557 15.6152 21.8926 15.3398 22.1963 15.1573C22.7443 14.8323 23.1982 14.3703 23.5135 13.8167C23.8288 13.2631 23.9945 12.6369 23.9945 11.9998C23.9945 11.3627 23.8288 10.7366 23.5135 10.183C23.1982 9.6294 22.7443 9.16737 22.1963 8.84233H22.2001ZM21.1651 13.4098C20.4863 13.8201 19.9579 14.4382 19.658 15.1724C19.358 15.9066 19.3027 16.7179 19.5001 17.4861C19.5704 17.7621 19.5676 18.0516 19.492 18.3262C19.4164 18.6007 19.2705 18.8509 19.0687 19.0519C18.8669 19.2529 18.6163 19.3978 18.3414 19.4724C18.0666 19.547 17.777 19.5487 17.5013 19.4773C16.7313 19.2841 15.9195 19.3439 15.1861 19.6478C14.4527 19.9517 13.8365 20.4836 13.4288 21.1648C13.2845 21.4106 13.0785 21.6144 12.8312 21.756C12.5839 21.8976 12.3038 21.9721 12.0188 21.9721C11.7338 21.9721 11.4538 21.8976 11.2065 21.756C10.9591 21.6144 10.7531 21.4106 10.6088 21.1648C10.2814 20.6164 9.81728 20.1623 9.26189 19.8468C8.70651 19.5314 8.07881 19.3653 7.44008 19.3648C7.13385 19.3647 6.82887 19.4037 6.53258 19.4811C6.25661 19.5514 5.96706 19.5487 5.6925 19.473C5.41793 19.3974 5.16781 19.2515 4.96681 19.0497C4.7658 18.848 4.62085 18.5973 4.54624 18.3224C4.47163 18.0476 4.46994 17.758 4.54133 17.4823C4.73515 16.7123 4.67566 15.9003 4.3717 15.1668C4.06774 14.4332 3.53548 13.8171 2.85383 13.4098C2.60805 13.2656 2.40426 13.0595 2.26265 12.8122C2.12105 12.5649 2.04655 12.2848 2.04655 11.9998C2.04655 11.7148 2.12105 11.4348 2.26265 11.1875C2.40426 10.9401 2.60805 10.7341 2.85383 10.5898C3.53597 10.1823 4.06832 9.56537 4.37169 8.83094C4.67506 8.0965 4.73324 7.28375 4.53758 6.51358C4.4681 6.23737 4.47165 5.94783 4.54787 5.6734C4.62408 5.39897 4.77035 5.14908 4.97232 4.94825C5.17428 4.74742 5.425 4.60256 5.69985 4.52789C5.97471 4.45322 6.26426 4.4513 6.54008 4.52233C7.30957 4.71527 8.12073 4.65535 8.85351 4.35143C9.5863 4.04751 10.2018 3.51574 10.6088 2.83483C10.7531 2.58906 10.9591 2.38526 11.2065 2.24366C11.4538 2.10205 11.7338 2.02756 12.0188 2.02756C12.3038 2.02756 12.5839 2.10205 12.8312 2.24366C13.0785 2.38526 13.2845 2.58906 13.4288 2.83483C13.8364 3.51698 14.4533 4.04933 15.1877 4.3527C15.9222 4.65607 16.7349 4.71425 17.5051 4.51858C17.7812 4.44859 18.0707 4.4516 18.3453 4.5273C18.6198 4.603 18.87 4.7488 19.0712 4.95039C19.2724 5.15197 19.4178 5.40241 19.4929 5.67713C19.5681 5.95184 19.5706 6.24138 19.5001 6.51733C19.3047 7.28695 19.363 8.0991 19.6664 8.83289C19.9698 9.56669 20.502 10.1829 21.1838 10.5898C21.4296 10.7341 21.6334 10.9401 21.775 11.1875C21.9166 11.4348 21.9911 11.7148 21.9911 11.9998C21.9911 12.2848 21.9166 12.5649 21.775 12.8122C21.6334 13.0595 21.4296 13.2656 21.1838 13.4098H21.1651Z" fill="#333F50"/>
<path d="M12 6.92627C10.9965 6.92627 10.0156 7.22384 9.1812 7.78135C8.34682 8.33886 7.69651 9.13127 7.31249 10.0584C6.92847 10.9855 6.82799 12.0056 7.02376 12.9899C7.21953 13.9741 7.70276 14.8781 8.41234 15.5877C9.12192 16.2973 10.026 16.7805 11.0102 16.9763C11.9944 17.1721 13.0146 17.0716 13.9417 16.6876C14.8688 16.3035 15.6612 15.6532 16.2187 14.8188C16.7762 13.9845 17.0738 13.0035 17.0738 12C17.0718 10.655 16.5366 9.36561 15.5855 8.41453C14.6344 7.46344 13.3451 6.92825 12 6.92627ZM12 15.045C11.3978 15.045 10.8091 14.8664 10.3083 14.5318C9.80756 14.1973 9.41728 13.7217 9.18681 13.1653C8.95634 12.6089 8.89604 11.9966 9.01353 11.406C9.13102 10.8153 9.42103 10.2727 9.84688 9.84688C10.2727 9.42103 10.8153 9.13102 11.406 9.01353C11.9966 8.89604 12.6089 8.95634 13.1653 9.18681C13.7217 9.41728 14.1973 9.80756 14.5318 10.3083C14.8664 10.8091 15.045 11.3978 15.045 12C15.044 12.8073 14.7229 13.5812 14.1521 14.1521C13.5812 14.7229 12.8073 15.044 12 15.045Z" fill="#333F50"/>
</g>
<defs>
<clipPath id="clip0_245_2286">
<rect width="24" height="24" fill="white"/>
</clipPath>
</defs>
</svg>
