<svg width="245" height="164" viewBox="0 0 245 164" fill="none" xmlns="http://www.w3.org/2000/svg">
<path opacity="0.1" d="M142.35 27.0382C126.643 26.4922 111.672 21.4209 97.398 15.8736C83.1237 10.3263 68.9758 4.17895 53.6369 1.23949C43.7749 -0.653228 32.4962 -0.919428 24.5516 4.36844C16.9046 9.45554 14.4346 18.2378 13.106 26.3862C12.1067 32.5178 11.527 38.9697 14.2587 44.711C16.1603 48.695 19.5348 52.045 21.8695 55.862C29.9901 69.1426 24.2493 85.5206 15.4474 98.4989C11.3195 104.59 6.53056 110.385 3.34548 116.862C0.160394 123.339 -1.31485 130.759 1.47323 137.364C4.23649 143.906 10.8187 148.828 17.9513 152.287C32.4376 159.305 49.5067 161.313 66.1517 162.463C102.997 164.983 140.04 163.891 176.982 162.799C190.654 162.393 204.387 161.985 217.836 159.867C225.304 158.691 233.017 156.828 238.439 152.33C245.322 146.618 247.029 136.949 242.416 129.786C234.679 117.776 213.288 114.791 207.879 101.901C204.904 94.8059 207.96 86.9012 212.287 80.3207C221.564 66.2054 237.12 53.8204 237.939 37.6838C238.503 26.6005 231.025 15.5037 219.462 10.2586C207.344 4.75646 190.539 5.45129 181.6 14.5449C172.394 23.9137 156.216 27.5187 142.35 27.0382Z" fill="#00CC99"/>
</svg>
